0
SECTION
2
HEADER
9
$INSUNITS
70
4
9
$ACADVER
1
AC1014
9
$HANDSEED
5
FFFF
0
ENDSEC
0
SECTION
2
TABLES
0
TABLE
2
VPORT
5
8
100
AcDbSymbolTable
0
ENDTAB
0
TABLE
2
LTYPE
5
5
100
AcDbSymbolTable
0
LTYPE
5
14
100
AcDbSymbolTableRecord
100
AcDbLinetypeTableRecord
2
BYBLOCK
70
0
0
LTYPE
5
15
100
AcDbSymbolTableRecord
100
AcDbLinetypeTableRecord
2
BYLAYER
70
0
0
ENDTAB
0
TABLE
2
LAYER
5
2
100
AcDbSymbolTable
70
2
0
LAYER
5
50
100
AcDbSymbolTableRecord
100
AcDbLayerTableRecord
2
0
70
0
6
CONTINUOUS
0
ENDTAB
0
TABLE
2
STYLE
5
3
100
AcDbSymbolTable
70
1
0
STYLE
5
11
100
AcDbSymbolTableRecord
100
AcDbTextStyleTableRecord
2
STANDARD
70
0
0
ENDTAB
0
TABLE
2
VIEW
5
6
100
AcDbSymbolTable
70
0
0
ENDTAB
0
TABLE
2
UCS
5
7
100
AcDbSymbolTable
70
0
0
ENDTAB
0
TABLE
2
APPID
5
9
100
AcDbSymbolTable
70
2
0
APPID
5
12
100
AcDbSymbolTableRecord
100
AcDbRegAppTableRecord
2
ACAD
70
0
0
ENDTAB
0
TABLE
2
DIMSTYLE
5
A
100
AcDbSymbolTable
70
1
0
ENDTAB
0
TABLE
2
BLOCK_RECORD
5
1
100
AcDbSymbolTable
70
1
0
BLOCK_RECORD
5
1F
100
AcDbSymbolTableRecord
100
AcDbBlockTableRecord
2
*MODEL_SPACE
0
BLOCK_RECORD
5
1B
100
AcDbSymbolTableRecord
100
AcDbBlockTableRecord
2
*PAPER_SPACE
0
ENDTAB
0
ENDSEC
0
SECTION
2
BLOCKS
0
BLOCK
5
20
100
AcDbEntity
100
AcDbBlockBegin
2
*MODEL_SPACE
0
ENDBLK
5
21
100
AcDbEntity
100
AcDbBlockEnd
0
BLOCK
5
1C
100
AcDbEntity
100
AcDbBlockBegin
2
*PAPER_SPACE
0
ENDBLK
5
1D
100
AcDbEntity
100
AcDbBlockEnd
0
ENDSEC
0
SECTION
2
ENTITIES
0
LWPOLYLINE
5
100
100
AcDbEntity
8
0
100
AcDbPolyline
90
54
70
1
43
0.0
10
35.795000000000002
20
5
10
35.795000000000002
20
3.0000000000000004
10
50.425000000000004
20
3.0000000000000004
10
50.425000000000004
20
5
10
65.055000000000007
20
5
10
65.055000000000007
20
3.0000000000000004
10
79.685000000000002
20
3.0000000000000004
10
79.685000000000002
20
5
10
94.314999999999998
20
5
10
94.314999999999998
20
3.0000000000000004
10
108.94500000000001
20
3.0000000000000004
10
108.94500000000001
20
5
10
123.57500000000002
20
5
10
123.57500000000002
20
3.0000000000000004
10
138.20500000000004
20
3.0000000000000004
10
138.20500000000004
20
5
10
152.83500000000001
20
5
10
152.83500000000001
20
3.0000000000000004
10
167.465
20
3.0000000000000004
10
174.00000000000003
20
3.0000000000000004
10
174.00000000000003
20
12.685000000000002
10
172
20
12.685000000000002
10
172
20
27.315000000000005
10
174.00000000000003
20
27.315000000000005
10
174.00000000000003
20
37
10
152.83500000000001
20
37
10
152.83500000000001
20
35
10
138.20500000000004
20
35
10
138.20500000000004
20
37
10
123.57500000000002
20
37
10
123.57500000000002
20
35
10
108.94500000000001
20
35
10
108.94500000000001
20
37
10
94.314999999999998
20
37
10
94.314999999999998
20
35
10
79.685000000000002
20
35
10
79.685000000000002
20
37
10
65.055000000000007
20
37
10
65.055000000000007
20
35
10
50.425000000000004
20
35
10
50.425000000000004
20
37
10
35.795000000000002
20
37
10
35.795000000000002
20
35
10
21.164999999999999
20
35
10
21.164999999999999
20
37
10
6.535000000000001
20
37
10
0
20
37
10
0
20
27.315000000000005
10
2
20
27.315000000000005
10
2
20
12.685000000000002
10
0
20
12.685000000000002
10
0
20
3.0000000000000004
10
21.164999999999999
20
3.0000000000000004
10
21.164999999999999
20
5
0
LWPOLYLINE
5
101
100
AcDbEntity
8
0
100
AcDbPolyline
90
44
70
1
43
0.0
10
275.57499999999999
20
37
10
260.94499999999999
20
37
10
260.94499999999999
20
35
10
246.31500000000003
20
35
10
246.31500000000003
20
37
10
231.685
20
37
10
231.685
20
35
10
217.05500000000001
20
35
10
217.05500000000001
20
37
10
202.42500000000004
20
37
10
202.42500000000004
20
35
10
187.79499999999999
20
35
10
187.79499999999999
20
37
10
179.00000000000003
20
37
10
179.00000000000003
20
27.315000000000005
10
177
20
27.315000000000005
10
177
20
12.685000000000002
10
179.00000000000003
20
12.685000000000002
10
179.00000000000003
20
3.0000000000000004
10
187.79499999999999
20
3.0000000000000004
10
187.79499999999999
20
5
10
202.42500000000004
20
5
10
202.42500000000004
20
3.0000000000000004
10
217.05500000000001
20
3.0000000000000004
10
217.05500000000001
20
5
10
231.685
20
5
10
231.685
20
3.0000000000000004
10
246.31500000000003
20
3.0000000000000004
10
246.31500000000003
20
5
10
260.94499999999999
20
5
10
260.94499999999999
20
3.0000000000000004
10
275.57499999999999
20
3.0000000000000004
10
275.57499999999999
20
5
10
290.20499999999998
20
5
10
290.20499999999998
20
3.0000000000000004
10
299
20
3.0000000000000004
10
299
20
12.685000000000002
10
301
20
12.685000000000002
10
301
20
27.315000000000005
10
299
20
27.315000000000005
10
299
20
37
10
290.20499999999998
20
37
10
290.20499999999998
20
35
10
275.57499999999999
20
35
0
LWPOLYLINE
5
102
100
AcDbEntity
8
0
100
AcDbPolyline
90
78
70
1
43
0.0
10
304
20
72.314999999999998
10
306
20
72.314999999999998
10
306
20
57.685000000000002
10
304
20
57.685000000000002
10
304
20
43.055000000000007
10
306
20
43.055000000000007
10
306
20
28.425000000000004
10
304
20
28.425000000000004
10
304
20
13.795000000000002
10
306
20
13.795000000000002
10
306
20
5
10
325.16500000000002
20
5
10
325.16500000000002
20
3.0000000000000004
10
339.79500000000002
20
3.0000000000000004
10
339.79500000000002
20
5
10
354.42500000000001
20
5
10
354.42500000000001
20
3.0000000000000004
10
369.05500000000006
20
3.0000000000000004
10
369.05500000000006
20
5
10
383.68500000000006
20
5
10
383.68500000000006
20
3.0000000000000004
10
398.31500000000005
20
3.0000000000000004
10
398.31500000000005
20
5
10
412.94499999999999
20
5
10
412.94499999999999
20
3.0000000000000004
10
427.57499999999999
20
3.0000000000000004
10
427.57499999999999
20
5
10
442.20500000000004
20
5
10
442.20500000000004
20
3.0000000000000004
10
456.83500000000004
20
3.0000000000000004
10
456.83500000000004
20
5
10
471.46500000000003
20
5
10
476
20
5
10
476
20
13.795000000000002
10
478.00000000000006
20
13.795000000000002
10
478.00000000000006
20
28.425000000000004
10
476
20
28.425000000000004
10
476
20
43.055000000000007
10
478.00000000000006
20
43.055000000000007
10
478.00000000000006
20
57.685000000000002
10
476
20
57.685000000000002
10
476
20
72.314999999999998
10
478.00000000000006
20
72.314999999999998
10
478.00000000000006
20
86.944999999999993
10
476
20
86.944999999999993
10
476
20
101.575
10
478.00000000000006
20
101.575
10
478.00000000000006
20
116.205
10
476
20
116.205
10
476
20
125
10
456.83500000000004
20
125
10
456.83500000000004
20
127.00000000000001
10
442.20500000000004
20
127.00000000000001
10
442.20500000000004
20
125
10
427.57499999999999
20
125
10
427.57499999999999
20
127.00000000000001
10
412.94499999999999
20
127.00000000000001
10
412.94499999999999
20
125
10
398.31500000000005
20
125
10
398.31500000000005
20
127.00000000000001
10
383.68500000000006
20
127.00000000000001
10
383.68500000000006
20
125
10
369.05500000000006
20
125
10
369.05500000000006
20
127.00000000000001
10
354.42500000000001
20
127.00000000000001
10
354.42500000000001
20
125
10
339.79500000000002
20
125
10
339.79500000000002
20
127.00000000000001
10
325.16500000000002
20
127.00000000000001
10
325.16500000000002
20
125
10
310.53500000000003
20
125
10
306
20
125
10
306
20
116.205
10
304
20
116.205
10
304
20
101.575
10
306
20
101.575
10
306
20
86.944999999999993
10
304
20
86.944999999999993
0
LWPOLYLINE
5
103
100
AcDbEntity
8
0
100
AcDbPolyline
90
54
70
1
43
0.0
10
0
20
74
10
0
20
64.314999999999998
10
2
20
64.314999999999998
10
2
20
49.685000000000002
10
0
20
49.685000000000002
10
0
20
40
10
21.164999999999999
20
40
10
21.164999999999999
20
42
10
35.795000000000002
20
42
10
35.795000000000002
20
40
10
50.425000000000004
20
40
10
50.425000000000004
20
42
10
65.055000000000007
20
42
10
65.055000000000007
20
40
10
79.685000000000002
20
40
10
79.685000000000002
20
42
10
94.314999999999998
20
42
10
94.314999999999998
20
40
10
108.94500000000001
20
40
10
108.94500000000001
20
42
10
123.57500000000002
20
42
10
123.57500000000002
20
40
10
138.20500000000004
20
40
10
138.20500000000004
20
42
10
152.83500000000001
20
42
10
152.83500000000001
20
40
10
167.465
20
40
10
174.00000000000003
20
40
10
174.00000000000003
20
49.685000000000002
10
172
20
49.685000000000002
10
172
20
64.314999999999998
10
174.00000000000003
20
64.314999999999998
10
174.00000000000003
20
74
10
152.83500000000001
20
74
10
152.83500000000001
20
72
10
138.20500000000004
20
72
10
138.20500000000004
20
74
10
123.57500000000002
20
74
10
123.57500000000002
20
72
10
108.94500000000001
20
72
10
108.94500000000001
20
74
10
94.314999999999998
20
74
10
94.314999999999998
20
72
10
79.685000000000002
20
72
10
79.685000000000002
20
74
10
65.055000000000007
20
74
10
65.055000000000007
20
72
10
50.425000000000004
20
72
10
50.425000000000004
20
74
10
35.795000000000002
20
74
10
35.795000000000002
20
72
10
21.164999999999999
20
72
10
21.164999999999999
20
74
10
6.5350000000000019
20
74
0
LWPOLYLINE
5
104
100
AcDbEntity
8
0
100
AcDbPolyline
90
44
70
1
43
0.0
10
275.57499999999999
20
42
10
290.20499999999998
20
42
10
290.20499999999998
20
40
10
299
20
40
10
299
20
49.685000000000002
10
301
20
49.685000000000002
10
301
20
64.314999999999998
10
299
20
64.314999999999998
10
299
20
74
10
290.20499999999998
20
74
10
290.20499999999998
20
72
10
275.57499999999999
20
72
10
275.57499999999999
20
74
10
260.94499999999999
20
74
10
260.94499999999999
20
72
10
246.31500000000003
20
72
10
246.31500000000003
20
74
10
231.685
20
74
10
231.685
20
72
10
217.05500000000001
20
72
10
217.05500000000001
20
74
10
202.42500000000004
20
74
10
202.42500000000004
20
72
10
187.79499999999999
20
72
10
187.79499999999999
20
74
10
179.00000000000003
20
74
10
179.00000000000003
20
64.314999999999998
10
177
20
64.314999999999998
10
177
20
49.685000000000002
10
179.00000000000003
20
49.685000000000002
10
179.00000000000003
20
40
10
187.79499999999999
20
40
10
187.79499999999999
20
42
10
202.42500000000004
20
42
10
202.42500000000004
20
40
10
217.05500000000001
20
40
10
217.05500000000001
20
42
10
231.685
20
42
10
231.685
20
40
10
246.31500000000003
20
40
10
246.31500000000003
20
42
10
260.94499999999999
20
42
10
260.94499999999999
20
40
10
275.57499999999999
20
40
0
LWPOLYLINE
5
105
100
AcDbEntity
8
0
100
AcDbPolyline
90
78
70
1
43
0.0
10
339.79500000000002
20
132
10
354.42500000000001
20
132
10
354.42500000000001
20
130
10
369.05500000000006
20
130
10
369.05500000000006
20
132
10
383.68500000000006
20
132
10
383.68500000000006
20
130
10
398.31500000000005
20
130
10
398.31500000000005
20
132
10
412.94499999999999
20
132
10
412.94499999999999
20
130
10
427.57499999999999
20
130
10
427.57499999999999
20
132
10
442.20500000000004
20
132
10
442.20500000000004
20
130
10
456.83500000000004
20
130
10
456.83500000000004
20
132
10
471.46500000000003
20
132
10
476
20
132
10
476
20
140.79499999999999
10
478.00000000000006
20
140.79499999999999
10
478.00000000000006
20
155.42500000000001
10
476
20
155.42500000000001
10
476
20
170.05500000000001
10
478.00000000000006
20
170.05500000000001
10
478.00000000000006
20
184.68500000000003
10
476
20
184.68500000000003
10
476
20
199.315
10
478.00000000000006
20
199.315
10
478.00000000000006
20
213.94499999999999
10
476
20
213.94499999999999
10
476
20
228.57500000000002
10
478.00000000000006
20
228.57500000000002
10
478.00000000000006
20
243.20500000000004
10
476
20
243.20500000000004
10
476
20
252.00000000000003
10
456.83500000000004
20
252.00000000000003
10
456.83500000000004
20
254.00000000000003
10
442.20500000000004
20
254.00000000000003
10
442.20500000000004
20
252.00000000000003
10
427.57499999999999
20
252.00000000000003
10
427.57499999999999
20
254.00000000000003
10
412.94499999999999
20
254.00000000000003
10
412.94499999999999
20
252.00000000000003
10
398.31500000000005
20
252.00000000000003
10
398.31500000000005
20
254.00000000000003
10
383.68500000000006
20
254.00000000000003
10
383.68500000000006
20
252.00000000000003
10
369.05500000000006
20
252.00000000000003
10
369.05500000000006
20
254.00000000000003
10
354.42500000000001
20
254.00000000000003
10
354.42500000000001
20
252.00000000000003
10
339.79500000000002
20
252.00000000000003
10
339.79500000000002
20
254.00000000000003
10
325.16500000000002
20
254.00000000000003
10
325.16500000000002
20
252.00000000000003
10
310.53500000000003
20
252.00000000000003
10
306
20
252.00000000000003
10
306
20
243.20500000000004
10
304
20
243.20500000000004
10
304
20
228.57500000000002
10
306
20
228.57500000000002
10
306
20
213.94499999999999
10
304
20
213.94499999999999
10
304
20
199.315
10
306
20
199.315
10
306
20
184.68500000000003
10
304
20
184.68500000000003
10
304
20
170.05500000000001
10
306
20
170.05500000000001
10
306
20
155.42500000000001
10
304
20
155.42500000000001
10
304
20
140.79499999999999
10
306
20
140.79499999999999
10
306
20
132
10
325.16500000000002
20
132
10
325.16500000000002
20
130
10
339.79500000000002
20
130
0
CIRCLE
5
106
100
AcDbEntity
8
0
100
AcDbCircle
10
313.58462445534497
20
244.56956759025076
30
0
40
4.93421002628304
210
0
220
0
230
1
0
CIRCLE
5
107
100
AcDbEntity
8
0
100
AcDbCircle
10
467.16717260904142
20
245.01089675161194
30
0
40
5.0319266416364492
210
0
220
0
230
1
0
CIRCLE
5
108
100
AcDbEntity
8
0
100
AcDbCircle
10
313.58462445534497
20
138.20923970220235
30
0
40
5.1656253955823672
210
0
220
0
230
1
0
CIRCLE
5
109
100
AcDbEntity
8
0
100
AcDbCircle
10
466.28451428631905
20
140.79499999999999
30
0
40
4.8546207749731707
210
0
220
0
230
1
0
LWPOLYLINE
5
110
100
AcDbEntity
8
0
100
AcDbPolyline
90
4
70
1
43
0.0
10
194.42575088782183
20
60.976636463992939
10
270
20
60.976636463992939
10
270
20
50
10
194.42575088782183
20
50
0
ENDSEC
0
SECTION
2
OBJECTS
0
DICTIONARY
5
C
100
AcDbDictionary
3
ACAD_GROUP
350
D
3
ACAD_MLINESTYLE
350
17
0
DICTIONARY
5
D
100
AcDbDictionary
0
DICTIONARY
5
1A
330
C
100
AcDbDictionary
0
DICTIONARY
5
17
100
AcDbDictionary
0
ENDSEC
0
EOF
